<svg xmlns="http://www.w3.org/2000/svg" viewBox="0 0 17 16">
  <path d="M13.8008 10.3721C13.6622 10.4903 13.4982 10.5494 13.3086 10.5494C13.1194 10.5494 12.9555 10.4903 12.817 10.3721L8.75692 6.90967L4.68302 10.3839C4.55369 10.4942 4.39203 10.5494 4.19803 10.5494C4.00404 10.5494 3.83775 10.4903 3.69919 10.3721C3.56062 10.2539 3.49133 10.114 3.49133 9.95237C3.49133 9.79103 3.56062 9.65127 3.69919 9.5331L8.36893 5.56251C8.42436 5.51524 8.48441 5.48168 8.54907 5.46182C8.61374 5.44229 8.68302 5.43252 8.75692 5.43252C8.83083 5.43252 8.90011 5.44229 8.96477 5.46182C9.02944 5.48168 9.08949 5.51524 9.14491 5.56251L13.8147 9.54491C13.944 9.6552 14.0087 9.79102 14.0087 9.95237C14.0087 10.114 13.9394 10.2539 13.8008 10.3721Z"/>
</svg>
