<svg xmlns="http://www.w3.org/2000/svg" viewBox="0 0 24 24">
  <path d="M12.1274 13.15C12.8155 13.15 13.4878 13.3557 14.0581 13.7407C14.6283 14.1257 15.0704 14.6724 15.3276 15.3106C15.5848 15.9488 15.6452 16.6493 15.5012 17.3221C15.3572 17.9949 15.0153 18.6093 14.5194 19.0863L12.3229 21.2H15.5774V23.5H8.67744V21.5174L12.9244 17.4292C13.0614 17.2974 13.1637 17.1338 13.222 16.9529C13.2803 16.772 13.2929 16.5794 13.2585 16.3925C13.2242 16.2055 13.1441 16.03 13.0254 15.8816C12.9066 15.7332 12.7529 15.6165 12.578 15.542C12.4032 15.4675 12.2125 15.4376 12.0232 15.4548C11.834 15.472 11.6519 15.5359 11.4933 15.6407C11.3347 15.7455 11.2046 15.888 11.1146 16.0554C11.0246 16.2228 10.9775 16.4099 10.9774 16.6H8.67744C8.67744 15.685 9.04092 14.8075 9.68792 14.1605C10.3349 13.5135 11.2124 13.15 12.1274 13.15ZM19.0274 13.15V17.75H21.3274V13.15H23.6274V23.5H21.3274V20.05H16.7274V13.15H19.0274ZM2.92744 12C2.92602 13.3795 3.23544 14.7416 3.83272 15.9852C4.42999 17.2287 5.29977 18.3217 6.37744 19.1829V21.9613C4.62853 20.9522 3.17629 19.5003 2.16688 17.7516C1.15747 16.0029 0.626507 14.0191 0.627443 12H2.92744ZM12.1274 0.500005C18.0902 0.500005 22.9938 5.03905 23.5699 10.85H21.2561C21.0321 9.07329 20.2944 7.40058 19.1336 6.03697C17.9728 4.67336 16.4393 3.67812 14.7212 3.17328C13.003 2.66845 11.1749 2.67596 9.46095 3.1949C7.74701 3.71384 6.22175 4.72165 5.07219 6.09475L7.52744 8.55H0.627443V1.65L3.44149 4.4629C4.52006 3.21767 5.85406 2.21922 7.35284 1.53541C8.85162 0.851603 10.48 0.498469 12.1274 0.500005Z" />
</svg>
